# xmcd
# 
# Track frame offsets:
#     150
#     13466
#     29538
#     42222
#     54762
#     68806
#     84468
#     108047
#     122379
#     143181
#     167071
#     192455
#     212349
#     228382
#     246089
#     266115
# 
# Disc length: 4052
# 
# Revision: 15
# Processed by: cddbd v1.5.2PL0 Copyright (c) Steve Scherf et al.
# Submitted via: BonkEnc v1.0.15
# 
DISCID=d70fd210
DTITLE=Various Artist - The Best of Smooth Jazz... Ever vol.1 CD4
DYEAR=2004
DGENRE=Jazz
TTITLE0=Chet Baker - My Funny Valentine
TTITLE1=Shirley Bassey - Something
TTITLE2=Julie London - Cry Me A River
TTITLE3=Peggy Lee - Here's That Rainy Day
TTITLE4=Duke Ellington and Louis Armstrong - I'm Just A Lucky So And So
TTITLE5=Sarah Vaughan - Stormy Weather
TTITLE6=Miles Davis and Cannonball Adderley - Autumn Leaves
TTITLE7=Bobby McFerrin - Thinking About Your Body
TTITLE8=Maze and Frankie Beverley - While I'm Alone
TTITLE9=Noel Pointer - Living For The City
TTITLE10=Earl Klugh - Living Inside Your Love
TTITLE11=Ronnie Foster - Me And Mrs Jones
TTITLE12=Ella Fitzgerald - Misty Blue
TTITLE13=Tina Turner - I've Been Loving You Too Long (To Stop Now)
TTITLE14=Lou Rawls - You Made Me So Very Happy
TTITLE15=Marlena Shaw - Woman Of The Ghetto
EXTD=YEAR: 2004
EXTT0=
EXTT1=
EXTT2=
EXTT3=
EXTT4=
EXTT5=
EXTT6=
EXTT7=
EXTT8=
EXTT9=
EXTT10=
EXTT11=
EXTT12=
EXTT13=
EXTT14=
EXTT15=
PLAYORDER=
